<svg xmlns="http://www.w3.org/2000/svg" xmlns:xlink="http://www.w3.org/1999/xlink" width="232.664" height="229.963" viewBox="0 0 232.664 229.963">
  <defs>
    <clipPath id="clip-path">
      <path id="Path_4969" data-name="Path 4969" d="M71.551,228.172a16.229,16.229,0,0,1,6.661-16.345c11.236-8.069,32.666-2.247,40.225,6.538,0,0,5.005,5.107,4.7,10.623Z" transform="translate(-71.268 -207.984)" fill="#454380"/>
    </clipPath>
  </defs>
  <g id="Group_4131" data-name="Group 4131" transform="translate(-96.452 -44.472)">
    <g id="Group_4003" data-name="Group 4003">
      <g id="Group_3998" data-name="Group 3998" transform="translate(-46)">
        <g id="Group_3996" data-name="Group 3996">
          <g id="Group_3993" data-name="Group 3993" opacity="0.63" style="mix-blend-mode: multiply;isolation: isolate">
            <g id="Group_3992" data-name="Group 3992">
              <path id="Path_4976" data-name="Path 4976" d="M286.956,125.516h68.836V49.47H286.956Z" fill="#d3d3d3"/>
            </g>
          </g>
          <rect id="Rectangle_2183" data-name="Rectangle 2183" width="71.382" height="78.839" transform="translate(284.524 46.802)" fill="#fff"/>
          <g id="Group_3995" data-name="Group 3995">
            <g id="Group_3994" data-name="Group 3994">
              <path id="Path_4977" data-name="Path 4977" d="M358.113,127.971h-75.8v-83.5h75.8ZM285.8,124.245h68.836V48.2H285.8Z" fill="#a2a0e6"/>
            </g>
          </g>
          <rect id="Rectangle_2184" data-name="Rectangle 2184" width="51.369" height="57.848" transform="translate(294.501 56.857)" fill="#ffce91"/>
        </g>
        <g id="Group_3997" data-name="Group 3997">
          <circle id="Ellipse_475" data-name="Ellipse 475" cx="7.893" cy="7.893" r="7.893" transform="translate(299.542 62.64)" fill="#f7a742"/>
          <circle id="Ellipse_476" data-name="Ellipse 476" cx="14.806" cy="14.806" r="14.806" transform="translate(313.012 79.324)" fill="#f7a742"/>
          <rect id="Rectangle_2185" data-name="Rectangle 2185" width="7.082" height="11.77" transform="translate(322.69 73.648) rotate(-90)" fill="#f8e5c9"/>
        </g>
      </g>
      <g id="Group_4002" data-name="Group 4002" transform="translate(45 25)">
        <g id="Group_4001" data-name="Group 4001">
          <g id="Group_3999" data-name="Group 3999">
            <path id="Path_4978" data-name="Path 4978" d="M160.331,66.73c0-4.71-3.971-7.741-8.869-7.741s-8.869,3.031-8.869,7.741a8.461,8.461,0,0,0,4.253,7.283h9.231A8.46,8.46,0,0,0,160.331,66.73Z" fill="#2d2d2d"/>
          </g>
          <g id="Group_4000" data-name="Group 4000">
            <rect id="Rectangle_2186" data-name="Rectangle 2186" width="93.142" height="4.599" transform="translate(82.418 73.934)" fill="#fff"/>
          </g>
          <rect id="Rectangle_2187" data-name="Rectangle 2187" width="5.757" height="28.985" rx="0.878" transform="translate(95.144 44.825)" fill="#ff6f92"/>
          <rect id="Rectangle_2188" data-name="Rectangle 2188" width="5.757" height="28.985" rx="0.878" transform="translate(101.863 44.825)" fill="#ff6f92"/>
          <rect id="Rectangle_2189" data-name="Rectangle 2189" width="5.757" height="28.985" rx="0.878" transform="translate(108.443 44.825)" fill="#2d2d2d"/>
          <path id="Path_4979" data-name="Path 4979" d="M132.335,70.753l-3.577,2.23a.782.782,0,0,1-1.111-.322l-12.61-23.58a.919.919,0,0,1,.3-1.2l3.577-2.229a.781.781,0,0,1,1.111.321l12.61,23.58A.919.919,0,0,1,132.335,70.753Z" fill="#ff6f92"/>
          <path id="Path_4980" data-name="Path 4980" d="M140.315,70.753l-3.577,2.23a.782.782,0,0,1-1.111-.322l-12.61-23.58a.918.918,0,0,1,.3-1.2l3.577-2.229a.781.781,0,0,1,1.111.321l12.609,23.58A.917.917,0,0,1,140.315,70.753Z" fill="#ff6f92"/>
        </g>
        <rect id="Rectangle_2190" data-name="Rectangle 2190" width="3.843" height="4.132" transform="translate(96.061 48.471)" fill="#fff"/>
        <rect id="Rectangle_2191" data-name="Rectangle 2191" width="3.843" height="1.061" transform="translate(102.82 70.431)" fill="#fff"/>
        <rect id="Rectangle_2192" data-name="Rectangle 2192" width="3.843" height="1.061" transform="translate(102.82 67.87)" fill="#fff"/>
      </g>
    </g>
    <g id="Group_3991" data-name="Group 3991" transform="translate(26.04 39.319)">
      <g id="Group_3961" data-name="Group 3961" transform="translate(138.054 128.07)">
        <g id="Group_3955" data-name="Group 3955" transform="translate(52.762 13.572)">
          <g id="Group_3954" data-name="Group 3954" transform="translate(15.493 68.14)">
            <path id="Path_4922" data-name="Path 4922" d="M211.752,227.42,209.9,214.084l9.6-1.821,2.09,16.631-7.242,1.533Z" transform="translate(-208.874 -212.263)" fill="#f9b8b2"/>
            <g id="Group_3953" data-name="Group 3953" transform="translate(0 13.385)">
              <g id="Group_3952" data-name="Group 3952">
                <path id="Path_4923" data-name="Path 4923" d="M211.047,227.674s7.23,2.921,10.589-1.775l14.348,8.932-27.129-.011Z" transform="translate(-208.855 -225.899)" fill="#09183d"/>
                <path id="Path_4924" data-name="Path 4924" d="M236,237.372l-27.129-.011-.015-2.374,27.129.011Z" transform="translate(-208.855 -226.066)" fill="#fff"/>
                <path id="Path_4925" data-name="Path 4925" d="M221.7,229.855a.49.49,0,0,0,.2-.155,10.1,10.1,0,0,1,2.268-2.239.451.451,0,0,0,.132-.646.509.509,0,0,0-.678-.126,10.851,10.851,0,0,0-2.517,2.469.45.45,0,0,0,.113.649A.511.511,0,0,0,221.7,229.855Z" transform="translate(-209.079 -225.912)" fill="#fff"/>
                <path id="Path_4926" data-name="Path 4926" d="M224.137,231.054a.483.483,0,0,0,.2-.155,10.121,10.121,0,0,1,2.269-2.239.452.452,0,0,0,.131-.646.507.507,0,0,0-.677-.126,10.829,10.829,0,0,0-2.517,2.469.451.451,0,0,0,.112.65A.513.513,0,0,0,224.137,231.054Z" transform="translate(-209.124 -225.934)" fill="#fff"/>
                <path id="Path_4927" data-name="Path 4927" d="M226.571,232.253a.483.483,0,0,0,.2-.155,10.144,10.144,0,0,1,2.268-2.239.451.451,0,0,0,.132-.646.509.509,0,0,0-.678-.126,10.858,10.858,0,0,0-2.517,2.468.451.451,0,0,0,.113.65A.509.509,0,0,0,226.571,232.253Z" transform="translate(-209.168 -225.956)" fill="#fff"/>
              </g>
            </g>
          </g>
          <path id="Path_4928" data-name="Path 4928" d="M211.709,142.846s11.594,40.615,12.122,74.2l-19.252,3.423s-2.083-35-10.873-64.272l-.633-13.352Z" transform="translate(-193.072 -142.846)" fill="#f7a742"/>
        </g>
        <g id="Group_3960" data-name="Group 3960" transform="translate(0)">
          <g id="Group_3958" data-name="Group 3958" transform="translate(0 72.561)">
            <path id="Path_4929" data-name="Path 4929" d="M148,214.058l7.593-11.117,8.33,5.1-9.629,13.72L147.9,218.03Z" transform="translate(-139.479 -202.941)" fill="#f9b8b2"/>
            <g id="Group_3957" data-name="Group 3957" transform="translate(0 10.659)">
              <g id="Group_3956" data-name="Group 3956">
                <path id="Path_4930" data-name="Path 4930" d="M147.362,213.8s3.39,7.022,9.034,5.8l4.622,16.257-20.082-18.24Z" transform="translate(-139.351 -213.8)" fill="#09183d"/>
                <path id="Path_4931" data-name="Path 4931" d="M159.4,237.7l-20.082-18.24,1.585-1.768,20.082,18.24Z" transform="translate(-139.322 -213.872)" fill="#fff"/>
                <path id="Path_4932" data-name="Path 4932" d="M153.861,222.557a.49.49,0,0,0,.253.021,10.12,10.12,0,0,1,3.184-.134.451.451,0,0,0,.531-.39.509.509,0,0,0-.417-.549,10.843,10.843,0,0,0-3.523.136.451.451,0,0,0-.353.557A.513.513,0,0,0,153.861,222.557Z" transform="translate(-139.583 -213.94)" fill="#fff"/>
                <path id="Path_4933" data-name="Path 4933" d="M154.858,225.081a.49.49,0,0,0,.253.021,10.1,10.1,0,0,1,3.184-.133.452.452,0,0,0,.531-.391.508.508,0,0,0-.417-.549,10.842,10.842,0,0,0-3.523.136.451.451,0,0,0-.353.557A.512.512,0,0,0,154.858,225.081Z" transform="translate(-139.601 -213.987)" fill="#fff"/>
                <path id="Path_4934" data-name="Path 4934" d="M155.855,227.6a.49.49,0,0,0,.253.02,10.115,10.115,0,0,1,3.184-.133.452.452,0,0,0,.531-.391.508.508,0,0,0-.417-.549,10.842,10.842,0,0,0-3.523.136.451.451,0,0,0-.353.557A.513.513,0,0,0,155.855,227.6Z" transform="translate(-139.62 -214.033)" fill="#fff"/>
              </g>
            </g>
          </g>
          <g id="Group_3959" data-name="Group 3959" transform="translate(9.536)">
            <path id="Path_4935" data-name="Path 4935" d="M197.352,156.72s-7.59,27.731-32.106,57.32L149.036,203.5s15.128-21.284,19.365-34.159,6.8-31.338,23.226-40.321L210.9,142.592Z" transform="translate(-149.036 -129.02)" fill="#f7a742"/>
            <line id="Line_171" data-name="Line 171" y1="4.268" x2="8.799" transform="translate(45.981 30.309)" fill="none" stroke="#de8420" stroke-miterlimit="10" stroke-width="0.704"/>
          </g>
        </g>
      </g>
      <g id="Group_3968" data-name="Group 3968" transform="translate(185.115 100.587)">
        <g id="Group_3966" data-name="Group 3966" transform="translate(38.348 19.406)">
          <g id="Group_3962" data-name="Group 3962">
            <path id="Path_4936" data-name="Path 4936" d="M238.943,134.589l-1.836,18.359c-.2,2.825-1.873,4.885-4.69,4.6h0a5.027,5.027,0,0,1-4.528-4.958l-.1-18.562Z" transform="translate(-226.358 -121.035)" fill="#f9b8b2"/>
            <path id="Path_4937" data-name="Path 4937" d="M240.73,138.818l1.327-10.133a7.349,7.349,0,0,0-6.278-7.816h0a6.993,6.993,0,0,0-8.007,6.346l-1.441,11.271Z" transform="translate(-226.331 -120.792)" fill="#fff"/>
          </g>
          <g id="Group_3965" data-name="Group 3965" transform="translate(1.649 27.357)">
            <path id="Path_4938" data-name="Path 4938" d="M233.307,148.7h0a4.84,4.84,0,0,0-5.273,5.3l5.826,23.76,6.617-.176-3.365-24.367A4.265,4.265,0,0,0,233.307,148.7Z" transform="translate(-228.011 -148.661)" fill="#f9b8b2"/>
            <g id="Group_3963" data-name="Group 3963" transform="translate(4.467 24.93)">
              <path id="Path_4939" data-name="Path 4939" d="M232.612,178.918a5.611,5.611,0,1,1,4.81,6.311A5.611,5.611,0,0,1,232.612,178.918Z" transform="translate(-232.561 -174.058)" fill="#f9b8b2"/>
              <path id="Path_4940" data-name="Path 4940" d="M241.8,184.042s2.321,1.075,2.938-1.8-.179-6.938-5.7-8.128Z" transform="translate(-232.68 -174.059)" fill="#f9b8b2"/>
            </g>
            <g id="Group_3964" data-name="Group 3964" transform="translate(4.467 24.93)">
              <path id="Path_4941" data-name="Path 4941" d="M232.612,178.918a5.611,5.611,0,1,1,4.81,6.311A5.611,5.611,0,0,1,232.612,178.918Z" transform="translate(-232.561 -174.058)" fill="#f9b8b2"/>
              <path id="Path_4942" data-name="Path 4942" d="M241.8,184.042s2.321,1.075,2.938-1.8-.179-6.938-5.7-8.128Z" transform="translate(-232.68 -174.059)" fill="#f9b8b2"/>
            </g>
          </g>
        </g>
        <g id="Group_3967" data-name="Group 3967">
          <path id="Path_4943" data-name="Path 4943" d="M207.72,110.781l9.833-9.759,4.413,3.3,13.8,14.436,2.148,1.528,2.022,3.1a1.457,1.457,0,0,1-.77,2.181L235.7,126.7c-2.695,3.505-7.107,8.626-12.442,10.271L213.48,148.69s-25.486.969-26.216-17.175Z" transform="translate(-187.264 -101.022)" fill="#fff"/>
          <path id="Path_4944" data-name="Path 4944" d="M226.627,136.36s4.039-1.033,8.288-7.34" transform="translate(-187.988 -101.537)" fill="none" stroke="#dcdcdc" stroke-miterlimit="10" stroke-width="0.704"/>
        </g>
      </g>
      <g id="Group_3975" data-name="Group 3975" transform="translate(219.816 77.367)">
        <g id="Group_3971" data-name="Group 3971" transform="translate(17.611)">
          <path id="Path_4945" data-name="Path 4945" d="M241.482,80.484a6.438,6.438,0,1,0,8.837-2.192A6.437,6.437,0,0,0,241.482,80.484Z" transform="translate(-240.557 -77.367)" fill="#452c14"/>
          <g id="Group_3970" data-name="Group 3970" transform="translate(0.401 6.855)">
            <path id="Path_4946" data-name="Path 4946" d="M252.142,90.3s.152-3.933-5.506-4-5.67,4.438-5.67,4.438Z" transform="translate(-240.966 -84.387)" fill="#fc4c77"/>
            <g id="Group_3969" data-name="Group 3969" transform="translate(4.319)">
              <path id="Path_4947" data-name="Path 4947" d="M250.469,87.714a5.871,5.871,0,0,1,4.949.458s-4.106,2.717-5.724.205Z" transform="translate(-245.446 -84.407)" fill="#ff6f92"/>
              <path id="Path_4948" data-name="Path 4948" d="M249.08,87.156s.081-1.332-3.695-2.805c0,0-.5,4.438,3.52,3.647h0" transform="translate(-245.366 -84.351)" fill="#ff6f92"/>
              <path id="Path_4949" data-name="Path 4949" d="M248.954,87.584a.885.885,0,1,0,1.062-.665A.886.886,0,0,0,248.954,87.584Z" transform="translate(-245.432 -84.398)" fill="#ff6f92"/>
            </g>
          </g>
        </g>
        <g id="Group_3972" data-name="Group 3972" transform="translate(12.225 10.567)">
          <path id="Path_4950" data-name="Path 4950" d="M237.411,92.689c-3.553,4.921-3.141,12.473,1.781,16.028s11.251.572,16.039-3.158c5.078-3.957,2.446-11.791-2.475-15.345A10.992,10.992,0,0,0,237.411,92.689Z" transform="translate(-235.07 -88.132)" fill="#452c14"/>
        </g>
        <path id="Path_4951" data-name="Path 4951" d="M240.452,110.829l-4.676,3.668c-1.939,1.523-3.915,1.143-5.4-.777h0c-1.267-1.64-3.116-2.865-1.645-4.326l9.681-6.7Z" transform="translate(-222.719 -77.833)" fill="#f9b8b2"/>
        <path id="Path_4952" data-name="Path 4952" d="M236.711,113.921l-.576-9.117,5.039,5.631Z" transform="translate(-222.865 -77.872)" fill="#ea948f"/>
        <path id="Path_4953" data-name="Path 4953" d="M238.6,112.045h0c2.973,2.881,7.665,2.93,10.066.608l5.63-5.515a7.816,7.816,0,0,0,.293-10.861h0c-2.912-3.219-8.361-4.061-11.539-1.185l-4.48,4.486C235.107,103.047,235.268,108.363,238.6,112.045Z" transform="translate(-222.863 -77.661)" fill="#f9b8b2"/>
        <g id="Group_3973" data-name="Group 3973" transform="translate(20.407 23.051)">
          <path id="Path_4954" data-name="Path 4954" d="M246.985,108.929l-.882,1.157-.818-.706" transform="translate(-243.44 -100.999)" fill="none" stroke="#1f120a" stroke-linecap="round" stroke-linejoin="round" stroke-width="0.552"/>
          <path id="Path_4955" data-name="Path 4955" d="M247.3,101.75s1.413,1.108.913,1.671c0,0-.348.372-1.559-.618s-1.427-1.353-1.205-1.8S246.678,101.182,247.3,101.75Z" transform="translate(-243.442 -100.85)" fill="#1f120a"/>
          <path id="Path_4956" data-name="Path 4956" d="M252.475,106.849s-.974-1.122-1.543-.687c0,0-.377.3.495,1.262s1.3,1.123,1.649.924C253.474,108.122,252.98,107.336,252.475,106.849Z" transform="translate(-243.543 -100.946)" fill="#1f120a"/>
          <path id="Path_4957" data-name="Path 4957" d="M249.2,108.764a.675.675,0,1,0,.955.009A.676.676,0,0,0,249.2,108.764Z" transform="translate(-243.509 -100.992)" fill="#1f120a"/>
          <path id="Path_4958" data-name="Path 4958" d="M245.043,104.586a.714.714,0,1,0,1.009.01A.714.714,0,0,0,245.043,104.586Z" transform="translate(-243.432 -100.915)" fill="#1f120a"/>
          <line id="Line_172" data-name="Line 172" x1="0.58" y1="0.59" transform="translate(0 9.292)" fill="none" stroke="#1f120a" stroke-linecap="round" stroke-linejoin="round" stroke-width="0.552"/>
        </g>
        <line id="Line_173" data-name="Line 173" x2="7.045" y2="5.103" transform="translate(6.013 31.561)" fill="#f9b8b2"/>
        <path id="Path_4959" data-name="Path 4959" d="M241.56,99.567s3.523-4.3,6.35-4,5.207,6.686,8.752,7.046c0,0,1.3-4.406-1.564-7.613-2.393-2.676-8.358-4.566-8.358-4.566l-4.25.025-1.307,5.439Z" transform="translate(-222.958 -77.608)" fill="#452c14"/>
        <g id="Group_3974" data-name="Group 3974" transform="translate(13.149 17.399)">
          <path id="Path_4960" data-name="Path 4960" d="M236.9,95.939a2.962,2.962,0,1,0,4.189.041A2.962,2.962,0,0,0,236.9,95.939Z" transform="translate(-236.012 -95.092)" fill="#f9b8b2"/>
          <path id="Path_4961" data-name="Path 4961" d="M239.123,99.439a1.722,1.722,0,0,0-.145-2.733" transform="translate(-236.066 -95.122)" fill="none" stroke="#1f120a" stroke-linecap="round" stroke-linejoin="round" stroke-width="0.507"/>
        </g>
        <path id="Path_4962" data-name="Path 4962" d="M233.688,113.26a35.154,35.154,0,0,1,4.881,7.091s-8.434.434-15.952-15.965C222.616,104.386,226.451,106.5,233.688,113.26Z" transform="translate(-222.616 -77.864)" fill="#f9b8b2"/>
      </g>
      <g id="Group_3990" data-name="Group 3990" transform="translate(70.412 91.399)">
        <g id="Group_3984" data-name="Group 3984" transform="translate(0 8.426)">
          <g id="Group_3978" data-name="Group 3978" transform="translate(50.18)">
            <g id="Group_3977" data-name="Group 3977" transform="translate(47.73 10.475)">
              <line id="Line_174" data-name="Line 174" x1="117.75" y1="121.001" fill="none" stroke="#2d2d2d" stroke-miterlimit="10" stroke-width="2.818"/>
              <g id="Group_3976" data-name="Group 3976" transform="translate(94.311 119.879)">
                <path id="Path_4963" data-name="Path 4963" d="M284.538,233.043h-14.01a4.293,4.293,0,0,0-4.293,4.294h21.91C288.145,234.965,286.91,233.043,284.538,233.043Z" transform="translate(-266.235 -233.043)" fill="#2d2d2d"/>
                <path id="Path_4964" data-name="Path 4964" d="M302.6,233.043H281.977a4.293,4.293,0,0,0-4.293,4.294h29.2A4.293,4.293,0,0,0,302.6,233.043Z" transform="translate(-266.446 -233.043)" fill="#515151"/>
              </g>
            </g>
            <path id="Path_4965" data-name="Path 4965" d="M170.41,111.9s-19.65-23.132-34.926-4.218c-11.223,13.9-2.882,39.808,2.088,58.56,5.169,19.5,13.047,43.96-16.04,54.114" transform="translate(-121.532 -100.246)" fill="none" stroke="#2d2d2d" stroke-miterlimit="10" stroke-width="1.409"/>
          </g>
          <g id="Group_3983" data-name="Group 3983" transform="translate(0 105.756)">
            <g id="Group_3981" data-name="Group 3981">
              <path id="Path_4966" data-name="Path 4966" d="M119.17,220.391l3.988-1.319,2.493,5.953-4.243,1.475Z" transform="translate(-71.309 -208.188)" fill="#6b69b3"/>
              <rect id="Rectangle_2182" data-name="Rectangle 2182" width="54.343" height="2.86" transform="translate(0 20.188)" fill="#fff"/>
              <g id="Group_3980" data-name="Group 3980" transform="translate(0.841)">
                <path id="Path_4967" data-name="Path 4967" d="M71.551,228.172a16.229,16.229,0,0,1,6.661-16.345c11.236-8.069,32.666-2.247,40.225,6.538,0,0,5.005,5.107,4.7,10.623Z" transform="translate(-71.268 -207.984)" fill="#454380"/>
                <g id="Group_3979" data-name="Group 3979" clip-path="url(#clip-path)">
                  <path id="Path_4968" data-name="Path 4968" d="M85.954,207.876s-6.5,8.72,6.817,9.354,29.011,0,29.011,0S104.82,204.388,85.954,207.876Z" transform="translate(-71.509 -207.971)" fill="#6b69b3"/>
                </g>
              </g>
            </g>
            <g id="Group_3982" data-name="Group 3982" transform="translate(4.609 13.89)">
              <circle id="Ellipse_474" data-name="Ellipse 474" cx="7.599" cy="7.599" r="7.599" fill="#2d2d2d"/>
              <path id="Path_4970" data-name="Path 4970" d="M120.889,232.06a5.357,5.357,0,1,1-5.357-5.357A5.356,5.356,0,0,1,120.889,232.06Z" transform="translate(-75.752 -222.218)" fill="#2d2d2d"/>
            </g>
          </g>
        </g>
        <g id="Group_3989" data-name="Group 3989" transform="translate(103.479)">
          <g id="Group_3986" data-name="Group 3986" transform="translate(7.083)">
            <path id="Path_4971" data-name="Path 4971" d="M202.671,109.251,186.058,101.3a5.028,5.028,0,0,1-2.53-6.751h0a5.027,5.027,0,0,1,6.187-2.606l17.525,6.12Z" transform="translate(-183.045 -91.662)" fill="#f9b8b2"/>
            <g id="Group_3985" data-name="Group 3985" transform="translate(17.976 3.338)">
              <path id="Path_4972" data-name="Path 4972" d="M201.358,108.519l9.1,4.644a7.351,7.351,0,0,0,9.468-3.3h0a6.994,6.994,0,0,0-3.3-9.67l-10.137-5.132Z" transform="translate(-201.358 -95.062)" fill="#fff"/>
              <line id="Line_175" data-name="Line 175" x2="6.413" y2="2.874" transform="translate(5.802 16.439)" fill="none" stroke="#dcdcdc" stroke-miterlimit="10" stroke-width="0.704"/>
            </g>
          </g>
          <g id="Group_3988" data-name="Group 3988" transform="translate(0 0.4)">
            <path id="Path_4973" data-name="Path 4973" d="M188.788,92.218h0a4.652,4.652,0,0,0-5.812,4.412l-2.937,23.554,5.946,1.249,6.249-24.049A4.653,4.653,0,0,0,188.788,92.218Z" transform="translate(-175.907 -92.069)" fill="#f9b8b2"/>
            <g id="Group_3987" data-name="Group 3987" transform="translate(0 25.912)">
              <path id="Path_4974" data-name="Path 4974" d="M176.083,125.756a5.611,5.611,0,1,1,7.02,3.7A5.61,5.61,0,0,1,176.083,125.756Z" transform="translate(-175.83 -118.466)" fill="#f9b8b2"/>
              <path id="Path_4975" data-name="Path 4975" d="M186.542,126.579s2.558,0,1.9-2.875-3.086-6.216-8.593-4.97Z" transform="translate(-175.904 -118.466)" fill="#f9b8b2"/>
            </g>
          </g>
        </g>
      </g>
    </g>
  </g>
</svg>
