<svg id="address" xmlns="http://www.w3.org/2000/svg" width="32" height="27.347" viewBox="0 0 32 27.347">
  <path id="Path_5038" data-name="Path 5038" d="M125.281,20.991l8.4,4.664V5.859l-8.4-4.664Zm0,0" transform="translate(-115.829 -1.11)" fill="#5c4db1"/>
  <path id="Path_5039" data-name="Path 5039" d="M254.427,33.876a5.291,5.291,0,0,1,1.528-3.384,4.946,4.946,0,0,1,3-1.438V13.988l-8.4,3.731V37.569l4.106-1.825A4.966,4.966,0,0,1,254.427,33.876Zm0,0" transform="translate(-231.655 -12.938)" fill="#5c4db1"/>
  <path id="Path_5040" data-name="Path 5040" d="M0,23.65l8.4-3.731V.07L0,3.8Zm0,0" transform="translate(0 -0.07)" fill="#5c4db1"/>
  <path id="Path_5041" data-name="Path 5041" d="M348.543,254.321a1.812,1.812,0,1,0-1.811,1.872A1.842,1.842,0,0,0,348.543,254.321Zm0,0" transform="translate(-318.898 -233.408)" fill="#5c4db1"/>
  <path id="Path_5042" data-name="Path 5042" d="M322.024,229.3a4.386,4.386,0,0,0-1.266-2.805,4.083,4.083,0,0,0-5.783,0,4.388,4.388,0,0,0-1.266,2.805,4.1,4.1,0,0,0,.249,1.688,4.466,4.466,0,0,0,.961,1.52l2.948,3.141,2.948-3.141a4.465,4.465,0,0,0,.961-1.52A4.1,4.1,0,0,0,322.024,229.3Zm-4.158,2.691a2.778,2.778,0,1,1,2.716-2.777A2.75,2.75,0,0,1,317.867,231.994Zm0,0" transform="translate(-290.033 -208.304)" fill="#5c4db1"/>
</svg>
