<svg id="blinds" xmlns="http://www.w3.org/2000/svg" width="52.471" height="55.618" viewBox="0 0 52.471 55.618">
  <path id="Path_59" data-name="Path 59" d="M51.421,0h-6.3a1.129,1.129,0,0,0-1.049,1.049H12.593A1.129,1.129,0,0,0,11.543,0H1.049A1.129,1.129,0,0,0,0,1.049v50.9a3.754,3.754,0,0,0,3.673,3.673A3.663,3.663,0,0,0,6.3,54.569,3.663,3.663,0,0,0,8.92,55.619a3.754,3.754,0,0,0,3.673-3.673V48.273H44.075v3.148a4.2,4.2,0,0,0,8.4,0V1.049A1.129,1.129,0,0,0,51.421,0ZM12.593,7.346H44.075V40.927H12.593V7.346Zm31.482-4.2v2.1H12.593v-2.1ZM3.673,53.52A1.516,1.516,0,0,1,2.1,51.946V2.1H5.247V51.946A1.516,1.516,0,0,1,3.673,53.52Zm6.821-1.574A1.516,1.516,0,0,1,8.92,53.52a1.516,1.516,0,0,1-1.574-1.574V2.1h3.148Zm2.1-5.772V43.026H44.075v3.148Zm37.779,5.247a2.1,2.1,0,0,1-4.2,0V2.1h4.2V51.421Zm0,0" fill="#fff"/>
  <path id="Path_60" data-name="Path 60" d="M12.226,13.224a1.864,1.864,0,0,0,.787-.262l3.148-3.148A1.02,1.02,0,1,0,14.718,8.37L11.57,11.518a1.029,1.029,0,0,0,0,1.443,1,1,0,0,0,.656.262Zm0,0" transform="translate(3.515 2.517)" fill="#d5d5d5"/>
  <path id="Path_61" data-name="Path 61" d="M19.865,8.267l-8.4,8.4a1.029,1.029,0,0,0,0,1.443.964.964,0,0,0,.787.262,1.864,1.864,0,0,0,.787-.262l8.4-8.264a1.029,1.029,0,0,0,0-1.443,1.08,1.08,0,0,0-1.574-.131Zm0,0" transform="translate(3.484 2.49)" fill="#d5d5d5"/>
</svg>
