<svg xmlns="http://www.w3.org/2000/svg" width="28.451" height="20.05" viewBox="0 0 28.451 20.05">
  <g id="envelope-2" transform="translate(0 0)">
    <g id="Group_3330" data-name="Group 3330">
      <path id="Path_1427" data-name="Path 1427" d="M28.431,102.133a1.588,1.588,0,0,0-1.457-1.688h0l-25.516.041a1.355,1.355,0,0,0-1.03.5,1.826,1.826,0,0,0-.425,1.2l.02,16.629A1.823,1.823,0,0,0,.448,120a1.354,1.354,0,0,0,1.029.493h0L27,120.455a1.589,1.589,0,0,0,1.455-1.692Zm-3.058,0-11.146,8.987L3.058,102.173ZM18.94,112.821l6.611,5.946-22.67.036,6.651-5.982a.939.939,0,0,0,.129-1.186.664.664,0,0,0-1.022-.15l-7.163,6.443-.018-14.982,12.355,9.9a.648.648,0,0,0,.83,0L26.975,102.9l.019,15.02-7.16-6.44a.664.664,0,0,0-1.022.15A.938.938,0,0,0,18.94,112.821Z" transform="translate(0 -100.445)" fill="#5c4db1"/>
    </g>
  </g>
</svg>
