<svg xmlns="http://www.w3.org/2000/svg" width="17.413" height="33.517" viewBox="0 0 17.413 33.517">
  <path id="facebook" d="M0,18.27V12.324H5.047c.136,0,.112,0,.112-.112V7.981c0-.227,0-.451.01-.678a9.658,9.658,0,0,1,.147-1.308A7.953,7.953,0,0,1,6.082,3.7,6.425,6.425,0,0,1,9.195.766a8.343,8.343,0,0,1,2.92-.7c.329-.021.661-.021.993-.017.57.007,1.14.024,1.71.042.308.01.616.024.923.045.448.031.9.07,1.343.1.112.01.22.024.329.038V5.6H14.437c-.245,0-.49.01-.738.024a3.488,3.488,0,0,0-.909.175,1.941,1.941,0,0,0-1.322,1.332A4.345,4.345,0,0,0,11.3,8.369c0,1.28,0,2.56,0,3.837,0,.119-.021.119.119.119h5.722c.052,0,.059.017.052.07-.035.259-.07.518-.1.776s-.066.518-.1.776l-.115.881c-.038.294-.073.588-.112.881s-.077.6-.119.9c-.031.255-.063.507-.1.762s-.07.525-.1.79c-.014.1-.01.1-.108.1H11.422c-.14,0-.126-.014-.126.126v15.07c0,.1,0,.1-.1.1H5.26c-.1,0-.1,0-.1-.1V18.375c0-.1,0-.1-.1-.1H.08A.618.618,0,0,0,0,18.27Z" transform="translate(0 -0.051)" fill="#3286e6"/>
</svg>
