<svg id="fridge" xmlns="http://www.w3.org/2000/svg" width="37.021" height="62.552" viewBox="0 0 37.021 62.552">
  <path id="Path_49" data-name="Path 49" d="M32.74,0H4.281A4.246,4.246,0,0,0,0,4.281v51a4.246,4.246,0,0,0,4.281,4.281h.378v1.763a1.26,1.26,0,0,0,2.518,0V59.561H30.1v1.763a1.26,1.26,0,0,0,2.518,0V59.561h.126a4.246,4.246,0,0,0,4.281-4.281v-51A4.327,4.327,0,0,0,32.74,0ZM4.281,2.518H32.74A1.721,1.721,0,0,1,34.5,4.281V22.036H2.518V4.281A1.721,1.721,0,0,1,4.281,2.518ZM32.74,57.043H4.281A1.721,1.721,0,0,1,2.518,55.28V24.555H34.5V55.28a1.8,1.8,0,0,1-1.763,1.763Zm0,0" fill="#fff"/>
  <path id="Path_50" data-name="Path 50" d="M4.6,23.453v6.8a1.26,1.26,0,0,0,2.518,0v-6.8a1.26,1.26,0,0,0-2.518,0Zm0,0" transform="translate(1.192 5.761)" fill="#fff"/>
  <path id="Path_51" data-name="Path 51" d="M7.118,16.078V9.153a1.26,1.26,0,0,0-2.518,0v6.8c0,1.637,2.518,1.637,2.518.126Zm0,0" transform="translate(1.192 2.054)" fill="#fff"/>
</svg>
