<svg id="gmail" xmlns="http://www.w3.org/2000/svg" width="35.388" height="26.956" viewBox="0 0 35.388 26.956">
  <g id="Group_936" data-name="Group 936" transform="translate(2.308)">
    <path id="Path_1009" data-name="Path 1009" d="M64.613,61.8l-2.26,22.684H35.218L33.4,62.242l15.385,8.612Z" transform="translate(-33.4 -57.529)" fill="#f2f2f2"/>
    <path id="Path_1010" data-name="Path 1010" d="M68.221,0,53.16,14.148,38.1,0H68.221Z" transform="translate(-37.775)" fill="#f2f2f2"/>
  </g>
  <path id="Path_1011" data-name="Path 1011" d="M4.126,54.007V74.43H1.666A1.667,1.667,0,0,1,0,72.765V51l2.7.069Z" transform="translate(0 -47.475)" fill="#f14336"/>
  <path id="Path_1012" data-name="Path 1012" d="M456.333,48.207V69.972a1.668,1.668,0,0,1-1.673,1.666H452.2V51.214L453.568,48Z" transform="translate(-420.946 -44.682)" fill="#d32e2a"/>
  <path id="Path_1013" data-name="Path 1013" d="M35.387,1.666V3.525L31.261,6.531,17.694,16.422,4.126,6.531,0,3.525V1.666A1.667,1.667,0,0,1,1.666,0h.968l15.06,10.976L32.754,0h.968A1.667,1.667,0,0,1,35.387,1.666Z" fill="#f14336"/>
  <path id="Path_1014" data-name="Path 1014" d="M4.126,54.007,0,53.371V51Z" transform="translate(0 -47.475)" fill="#d32e2a"/>
</svg>
