<svg xmlns="http://www.w3.org/2000/svg" width="37.647" height="27.827" viewBox="0 0 37.647 27.827">
  <g id="Group_3537" data-name="Group 3537" transform="translate(0 0)">
    <path id="Path_1483" data-name="Path 1483" d="M239.132,214.269v4.115a2.53,2.53,0,0,1-2.518,2.541,2.479,2.479,0,0,1-2.434-2.476v-3.967a.71.71,0,0,0-.957-.666l-2.184.807a.711.711,0,0,1-.507-.006l-1.3-.513a.71.71,0,0,0-.971.661v3.556a8.4,8.4,0,1,0,16.793.127v-4.181a.642.642,0,0,0-.642-.642h-4.636A.643.643,0,0,0,239.132,214.269Z" transform="translate(-207.406 -199.02)" fill="#fff"/>
    <path id="Path_1484" data-name="Path 1484" d="M20.854,61.754V63.72a.71.71,0,0,0,.45.661l1.868.737a.71.71,0,0,0,.507.005l2.631-.973a.71.71,0,0,0,.464-.666V61.815a7.951,7.951,0,1,0-15.9-.121V73.108A2.53,2.53,0,0,1,8.354,75.65,2.479,2.479,0,0,1,5.92,73.174V68.993a.642.642,0,0,0-.642-.642H.642A.642.642,0,0,0,0,68.993v4.053a8.479,8.479,0,0,0,8.266,8.523,8.406,8.406,0,0,0,8.527-8.4V61.694a2.033,2.033,0,0,1,2.133-2.028A2.07,2.07,0,0,1,20.854,61.754Z" transform="translate(0 -53.744)" fill="#fff"/>
  </g>
</svg>
