<svg xmlns="http://www.w3.org/2000/svg" width="37.874" height="34.079" viewBox="0 0 37.874 34.079">
  <g id="notifications" transform="translate(0.5 0.5)">
    <path id="Path_777" data-name="Path 777" d="M37.259,24.039c-1.414,1.313-3.233,1.616-4.95,1.919a39.724,39.724,0,0,1-17.579-.606A8.038,8.038,0,0,1,12.2,24.241c-.606-.3-.606-.808-.1-1.313,3.031-2.526,4.041-6.062,4.243-9.8a10.778,10.778,0,0,1,4.142-8.385l.909-.606a1.536,1.536,0,0,0,1.01-1.313A2.687,2.687,0,0,1,24.429.5h1.313a3.03,3.03,0,0,1,2.122,2.93.746.746,0,0,0,.505.606,9.525,9.525,0,0,1,5.354,7.678A29.5,29.5,0,0,0,35.441,20.1a31.681,31.681,0,0,0,1.818,3.132Z" transform="translate(-0.385 -0.5)" fill="#5c4db1" stroke="#5c4db1" stroke-width="1"/>
    <path id="Path_778" data-name="Path 778" d="M.5,8.311A2.864,2.864,0,0,1,3.026,7.2h10.1c-.505,1.212-.909,2.324-1.414,3.536-3.132,0-6.264.1-9.5,0-.606,0-1.111-.707-1.717-1.01C.5,9.221.5,8.816.5,8.311Z" transform="translate(-0.5 -0.431)" fill="#5c4db1" stroke="#5c4db1" stroke-width="1"/>
    <path id="Path_779" data-name="Path 779" d="M.5,16.111A2.175,2.175,0,0,1,2.723,15c2.526.1,5.152,0,7.678,0h1.111c-.2,1.111-.3,2.021-.505,2.93,0,.2-.4.505-.606.505H2.116A1.729,1.729,0,0,1,.5,17.223C.5,16.819.5,16.516.5,16.111Z" transform="translate(-0.5 -0.351)" fill="#5c4db1" stroke="#5c4db1" stroke-width="1"/>
    <path id="Path_780" data-name="Path 780" d="M29.424,33.138a3.033,3.033,0,0,1-2.324-2.93c1.818-.3,3.738-.505,5.556-.808a2.712,2.712,0,0,1-1.313,3.435,2.532,2.532,0,0,0-.707.4A5.338,5.338,0,0,0,29.424,33.138Z" transform="translate(-0.227 -0.203)" fill="#5c4db1" stroke="#5c4db1" stroke-width="1"/>
  </g>
</svg>
