<svg id="organizing" xmlns="http://www.w3.org/2000/svg" width="55.9" height="55.9" viewBox="0 0 55.9 55.9">
  <path id="Path_72" data-name="Path 72" d="M44.919,361.045h0a1.1,1.1,0,0,0-1.542.191,1.089,1.089,0,0,0,.2,1.529l.014.014a1.121,1.121,0,0,0,1.542-.2,1.1,1.1,0,0,0-.218-1.529Zm0,0" transform="translate(-37.263 -311.572)" fill="#bababa"/>
  <path id="Path_73" data-name="Path 73" d="M44.919,295.445h0a1.1,1.1,0,0,0-1.542.191,1.089,1.089,0,0,0,.2,1.529l.014.014a1.1,1.1,0,0,0,1.542-.191,1.119,1.119,0,0,0-.218-1.542Zm0,0" transform="translate(-37.263 -254.925)" fill="#bababa"/>
  <path id="Path_74" data-name="Path 74" d="M44.919,229.845h0a1.1,1.1,0,0,0-1.542.191,1.089,1.089,0,0,0,.2,1.529l.014.014a1.121,1.121,0,0,0,1.542-.2,1.1,1.1,0,0,0-.218-1.529Zm0,0" transform="translate(-37.263 -198.278)" fill="#bababa"/>
  <path id="Path_75" data-name="Path 75" d="M352.019,361.077h0a1.1,1.1,0,0,0-1.542.2,1.089,1.089,0,0,0,.2,1.529l.014.014a1.052,1.052,0,0,0,.655.218,1.1,1.1,0,0,0,.873-.437,1.074,1.074,0,0,0-.2-1.529Zm0,0" transform="translate(-302.451 -311.605)" fill="#bababa"/>
  <path id="Path_76" data-name="Path 76" d="M352.019,295.477h0a1.1,1.1,0,0,0-1.542.2,1.089,1.089,0,0,0,.2,1.529l.014.014a1.052,1.052,0,0,0,.655.218,1.1,1.1,0,0,0,.873-.437,1.074,1.074,0,0,0-.2-1.529Zm0,0" transform="translate(-302.451 -254.957)" fill="#bababa"/>
  <path id="Path_77" data-name="Path 77" d="M352.019,229.877h0a1.1,1.1,0,0,0-1.542.2,1.089,1.089,0,0,0,.2,1.529l.014.014a1.052,1.052,0,0,0,.655.218,1.1,1.1,0,0,0,.873-.437,1.074,1.074,0,0,0-.2-1.529Zm0,0" transform="translate(-302.451 -198.31)" fill="#bababa"/>
  <path id="Path_78" data-name="Path 78" d="M288.605,262.4h-.014a1.092,1.092,0,1,0,0,2.184h.014a1.092,1.092,0,1,0,0-2.184Zm0,0" transform="translate(-248.263 -226.589)" fill="#bababa"/>
  <path id="Path_79" data-name="Path 79" d="M107.105,328h-.014a1.092,1.092,0,1,0,0,2.184h.014a1.092,1.092,0,1,0,0-2.184Zm0,0" transform="translate(-91.534 -283.236)" fill="#bababa"/>
  <path id="Path_80" data-name="Path 80" d="M52.77,146.214a1.105,1.105,0,0,0-.778-.314,1.167,1.167,0,0,0-.778.314,1.1,1.1,0,0,0,0,1.542,1.082,1.082,0,0,0,.778.314,1.105,1.105,0,0,0,.778-.314,1.073,1.073,0,0,0,.314-.764,1.009,1.009,0,0,0-.314-.778Zm0,0" transform="translate(-43.953 -125.988)" fill="#bababa"/>
  <path id="Path_81" data-name="Path 81" d="M54.809,26.858H50.278a6.5,6.5,0,0,0-.3-11.45,6.516,6.516,0,0,0-5.937-9.158,6.43,6.43,0,0,0-3.18.833A7.5,7.5,0,0,0,36.507,5.7a2.314,2.314,0,0,0-.314.014A8.45,8.45,0,0,0,20.581,4.79a7.493,7.493,0,0,0-.792-.041A8.439,8.439,0,0,0,12.01,9.908c-.232-.068-.464-.136-.71-.191a4.847,4.847,0,0,1,1.324-3.166,3.022,3.022,0,0,1,1.351-.764h-.014a1.05,1.05,0,0,0,.614-.3,1.073,1.073,0,0,0,.314-.764,1.168,1.168,0,0,0-.314-.778A1.105,1.105,0,0,0,13.8,3.63a.721.721,0,0,0-.177.014h0a4.692,4.692,0,0,0-2.347,1.2V1.092A1.1,1.1,0,0,0,10.181,0H7.547A1.1,1.1,0,0,0,6.455,1.092V5.172A12.986,12.986,0,0,0,3.739,2.661a1.094,1.094,0,1,0-1.2,1.829c.041.027,3.344,2.238,3.835,5.418A8.714,8.714,0,0,0,0,18.1a49.593,49.593,0,0,0,1.8,8.762h-.71A1.1,1.1,0,0,0,0,27.95V54.809A1.1,1.1,0,0,0,1.092,55.9H54.809A1.1,1.1,0,0,0,55.9,54.809V27.95a1.1,1.1,0,0,0-1.092-1.092ZM19.789,6.947a6.421,6.421,0,0,1,1.256.123,1.081,1.081,0,0,0,1.242-.71A6.263,6.263,0,0,1,34.01,6.128a7.6,7.6,0,0,0-5.077,7.151,1.092,1.092,0,0,0,2.184,0,5.375,5.375,0,0,1,8.939-4.026,1.09,1.09,0,0,0,1.378.055,4.321,4.321,0,0,1,6.06,6.032,1.092,1.092,0,0,0-.15,1.024,1.118,1.118,0,0,0,.764.7,4.309,4.309,0,0,1-1.051,8.489,4.166,4.166,0,0,1-.819-.082,1.092,1.092,0,0,0-1.228.71,3.244,3.244,0,0,1-.328.7H43.3l4.476-6.414a1.129,1.129,0,0,0,.177-.833,1.1,1.1,0,0,0-.464-.71L44.314,16.8a1.1,1.1,0,0,0-1.542.355l-1.6,2.634,1.3-6.592a1.087,1.087,0,0,0-.846-1.283l-2.8-.587a1.122,1.122,0,0,0-.833.164,1.1,1.1,0,0,0-.464.71l-.355,1.911H34.624A1.1,1.1,0,0,0,33.532,15.2v6.278A8.085,8.085,0,0,0,25.6,14.958a7.977,7.977,0,0,0-4.859,1.624,8.075,8.075,0,0,0-2.62,3.412,12.357,12.357,0,0,0,.2-1.9A8.1,8.1,0,0,0,17.223,14a4,4,0,0,1,4.558-2.538,1.081,1.081,0,0,0,1.242-.71A4.044,4.044,0,0,1,24.2,9.035,1.094,1.094,0,0,0,22.778,7.37,6.307,6.307,0,0,0,21.318,9.2c-.109,0-.232-.014-.341-.014a6.177,6.177,0,0,0-5.241,2.907A9.039,9.039,0,0,0,14,10.782a6.289,6.289,0,0,1,5.787-3.835Zm20.13,19.107,4.108-6.81,1.31.873-4.708,6.742h-.873ZM38.554,21.7V18.67c0-.027.014-.041.014-.068l.914-4.913.628.123Zm-2.839,3.262c0-.041.014-.082.014-.123V16.3h.641V26.858H36.03v-.2a4.66,4.66,0,0,0-.314-1.692ZM20.744,19.871h-.1a5.894,5.894,0,0,1,10.768,2.088A4.505,4.505,0,0,0,27.746,23.9a8.109,8.109,0,0,0-7-4.026Zm5.787,6.988H14.944a5.9,5.9,0,0,1,11.587,0Zm4.913-2.7a2.454,2.454,0,0,1,2.4,2.5,1.033,1.033,0,0,1-.014.2h-4.79c0-.068-.014-.136-.014-.2a2.474,2.474,0,0,1,2.416-2.5ZM8.639,2.184h.437V9.5c-.15,0-.287,0-.437.014ZM2.252,17.223a1.054,1.054,0,0,0,.2.027h5.4a1.092,1.092,0,1,0,0-2.184H3.016a7.1,7.1,0,0,1,6.155-3.385c3.849,0,6.988,2.88,6.988,6.4a10.519,10.519,0,0,1-.218,1.774H11.6a1.092,1.092,0,1,0,0,2.184h3.63a8.019,8.019,0,0,0-2.484,4.8H4.053A51.944,51.944,0,0,1,2.184,18.1a6.116,6.116,0,0,1,.068-.873ZM53.717,35.811H44.109a1.092,1.092,0,1,0,0,2.184h9.608v6.769H19.284a1.092,1.092,0,0,0,0,2.184H53.717v6.769H2.184V46.948h9.608a1.092,1.092,0,1,0,0-2.184H2.184V37.995H36.617a1.092,1.092,0,1,0,0-2.184H2.184V29.042H53.717Zm0,0" fill="#fff"/>
  <path id="Path_82" data-name="Path 82" d="M189.405,43.2h-.014a1.092,1.092,0,1,0,0,2.184h.014a1.092,1.092,0,1,0,0-2.184Zm0,0" transform="translate(-162.602 -37.304)" fill="#bababa"/>
</svg>
