<svg id="patio" xmlns="http://www.w3.org/2000/svg" width="74.294" height="61.104" viewBox="0 0 74.294 61.104">
  <path id="Path_83" data-name="Path 83" d="M42.4,106.421H39.8l3.216,10.525a.987.987,0,0,1-.65,1.234.9.9,0,0,1-.292.032.974.974,0,0,1-.942-.682L37.72,106.453H29.241L26.09,117.628a.965.965,0,0,1-.942.715.633.633,0,0,1-.26-.033.971.971,0,0,1-.682-1.2l3.281-11.63-4.58-15.138a.986.986,0,1,1,1.884-.585l4.418,14.683H42.4a.985.985,0,0,1,.975,1.007.957.957,0,0,1-.975.975Zm0,0" transform="translate(-15.435 -60.13)" fill="#fff"/>
  <path id="Path_84" data-name="Path 84" d="M161.233,90.206l-4.548,15.105,3.281,11.63a.958.958,0,0,1-.682,1.2.807.807,0,0,1-.26.032.975.975,0,0,1-.942-.715l-3.151-11.175h-8.478l-3.411,11.077a.974.974,0,0,1-.942.682.9.9,0,0,1-.292-.032.987.987,0,0,1-.65-1.234l3.216-10.525h-2.6a.985.985,0,0,1-.975-1.007,1.006,1.006,0,0,1,.975-1.007h13.156l4.418-14.683a.987.987,0,0,1,1.234-.65,1.122,1.122,0,0,1,.65,1.3Zm0,0" transform="translate(-95.062 -59.995)" fill="#fff"/>
  <path id="Path_85" data-name="Path 85" d="M99.592,74.3H90.172V53.507A1.012,1.012,0,0,0,89.165,52.5a.985.985,0,0,0-.975,1.007V74.3H78.607a1.006,1.006,0,0,0-1.007.975.985.985,0,0,0,1.007.975H88.19V88.72H84.779c-2.079,0-2.989,2.209-3.183,3.541a.941.941,0,0,0,.227.78.971.971,0,0,0,.747.357H95.824a.971.971,0,0,0,.747-.357.941.941,0,0,0,.227-.78c-.195-1.3-1.1-3.541-3.184-3.541H90.172V76.246h9.421a1.006,1.006,0,0,0,1.007-.975.985.985,0,0,0-1.007-.975ZM93.615,90.734c.357,0,.65.325.845.715H83.9c.195-.39.487-.715.845-.715Zm0,0" transform="translate(-52.392 -35.446)" fill="#fff"/>
  <path id="Path_86" data-name="Path 86" d="M79.431,14.813C79.139,14.2,72.089,0,47.141,0s-32,14.2-32.257,14.813a.9.9,0,0,0,.065.942.98.98,0,0,0,.845.455H78.521a1.021,1.021,0,0,0,.845-.455,1.073,1.073,0,0,0,.065-.942Zm-61.916-.552a23.5,23.5,0,0,1,5.392-5.425c4.223-3.119,11.857-6.854,24.234-6.854,19,0,27.125,8.771,29.594,12.279Zm0,0" transform="translate(-9.979)" fill="#fff"/>
  <path id="Path_87" data-name="Path 87" d="M73.35,184.049H.975a.975.975,0,0,1,0-1.949H73.318a.977.977,0,0,1,.975.975.95.95,0,0,1-.942.975Zm0,0" transform="translate(0 -122.945)" fill="#fff"/>
</svg>
