<svg xmlns="http://www.w3.org/2000/svg" width="19.169" height="18.332" viewBox="0 0 19.169 18.332">
  <path id="star" d="M10.511,1.622,12.673,6a1.032,1.032,0,0,0,.777.565l4.835.7a1.032,1.032,0,0,1,.572,1.761l-3.5,3.41a1.032,1.032,0,0,0-.3.914l.826,4.815a1.032,1.032,0,0,1-1.5,1.088l-4.324-2.273a1.033,1.033,0,0,0-.961,0L4.781,19.258a1.032,1.032,0,0,1-1.5-1.088l.826-4.815a1.032,1.032,0,0,0-.3-.914l-3.5-3.41A1.032,1.032,0,0,1,.886,7.27l4.835-.7A1.032,1.032,0,0,0,6.5,6L8.66,1.622A1.032,1.032,0,0,1,10.511,1.622Z" transform="translate(-0.001 -1.047)" fill="#191919"/>
</svg>
