<svg xmlns="http://www.w3.org/2000/svg" width="22.778" height="22.778" viewBox="0 0 22.778 22.778">
  <g id="telephone-2" transform="translate(0.249 0.25)">
    <path id="Path_1428" data-name="Path 1428" d="M5.409,14.809a23.635,23.635,0,0,0,7.861,6.158,12.235,12.235,0,0,0,4.4,1.3c.106,0,.208.009.314.009a3.643,3.643,0,0,0,2.825-1.214.1.1,0,0,0,.018-.023,11.893,11.893,0,0,1,.891-.923c.217-.208.439-.425.651-.646a2.229,2.229,0,0,0-.009-3.319l-2.774-2.774a2.246,2.246,0,0,0-1.625-.748,2.321,2.321,0,0,0-1.643.743l-1.653,1.653c-.152-.088-.309-.166-.457-.24a5.709,5.709,0,0,1-.508-.277,17.49,17.49,0,0,1-4.178-3.8A10.072,10.072,0,0,1,8.11,8.452c.434-.392.84-.8,1.233-1.2.138-.143.282-.286.425-.429a2.367,2.367,0,0,0,.766-1.662,2.348,2.348,0,0,0-.766-1.662L8.391,2.119c-.162-.162-.314-.319-.471-.48C7.616,1.325,7.3,1,6.983.711A2.3,2.3,0,0,0,5.358,0,2.369,2.369,0,0,0,3.715.716L1.988,2.442A3.547,3.547,0,0,0,.931,4.713a8.544,8.544,0,0,0,.642,3.693A21.485,21.485,0,0,0,5.409,14.809Zm-3.351-10a2.442,2.442,0,0,1,.734-1.57L4.509,1.523a1.243,1.243,0,0,1,.849-.392,1.18,1.18,0,0,1,.831.4c.309.286.6.586.914.9.157.162.319.323.48.489L8.959,4.3a1.254,1.254,0,0,1,.434.863,1.254,1.254,0,0,1-.434.863c-.143.143-.286.291-.429.434C8.1,6.9,7.7,7.307,7.256,7.7l-.023.023A.9.9,0,0,0,7,8.748c0,.014.009.023.014.037a10.864,10.864,0,0,0,1.62,2.636,18.46,18.46,0,0,0,4.45,4.053,6.608,6.608,0,0,0,.609.332,5.71,5.71,0,0,1,.508.277l.051.028a.965.965,0,0,0,.448.115.979.979,0,0,0,.688-.314l1.726-1.726a1.222,1.222,0,0,1,.845-.411,1.159,1.159,0,0,1,.817.411l2.784,2.779a1.113,1.113,0,0,1-.014,1.74c-.194.208-.4.406-.614.614a13.3,13.3,0,0,0-.965,1,2.534,2.534,0,0,1-1.98.84c-.078,0-.162,0-.24-.009a11.116,11.116,0,0,1-3.979-1.191A22.453,22.453,0,0,1,6.286,14.1a20.565,20.565,0,0,1-3.647-6.07A7.445,7.445,0,0,1,2.058,4.81Z" transform="translate(-0.912 0)" fill="#5c4db1" stroke="#8b7aeb" stroke-width="0.5"/>
  </g>
</svg>
