<svg id="tick" xmlns="http://www.w3.org/2000/svg" width="31.358" height="31.358" viewBox="0 0 31.358 31.358">
  <g id="Group_4056" data-name="Group 4056">
    <path id="Path_5043" data-name="Path 5043" d="M15.679,0A15.679,15.679,0,1,0,31.358,15.679,15.7,15.7,0,0,0,15.679,0Zm8.955,11.185-11.3,11.3a1.306,1.306,0,0,1-1.848,0L5.418,16.412a.653.653,0,0,1,0-.924l.924-.924a.653.653,0,0,1,.924,0l5.147,5.147L22.786,9.338a.653.653,0,0,1,.924,0l.924.924A.653.653,0,0,1,24.634,11.185Z" fill="#5c4db1"/>
  </g>
</svg>
