<svg xmlns="http://www.w3.org/2000/svg" width="34.015" height="27.684" viewBox="0 0 34.015 27.684">
  <path id="twitter" d="M1494.715,73.319a14.412,14.412,0,0,1-2.2,2.554,13.056,13.056,0,0,1-1.178.966.2.2,0,0,0-.1.209,13.391,13.391,0,0,1-.012,1.9,19.81,19.81,0,0,1-.49,3.317,20.871,20.871,0,0,1-3.149,7.112,20.27,20.27,0,0,1-1.947,2.4,18.721,18.721,0,0,1-5.252,3.9,18.931,18.931,0,0,1-5.2,1.708,20.3,20.3,0,0,1-2.65.3c-.179.009-.359.018-.535.03-.478,0-.957.009-1.435-.012a19.746,19.746,0,0,1-9.737-3.011c-.045-.03-.087-.063-.132-.1l0,0a2,2,0,0,1,.4.021,14.164,14.164,0,0,0,5.308-.553,13.961,13.961,0,0,0,4.477-2.3c.021-.015.039-.033.057-.048s0-.009.009-.03c-.188-.036-.383-.024-.571-.045a6.828,6.828,0,0,1-2.937-1.014,6.913,6.913,0,0,1-2.9-3.592.5.5,0,0,1-.051-.185l.009-.009a10.633,10.633,0,0,0,1.411.1,7.179,7.179,0,0,0,1.687-.236,7.024,7.024,0,0,1-5.583-6.947,7.437,7.437,0,0,0,1.516.622,6.652,6.652,0,0,0,1.621.251c-.179-.138-.335-.254-.488-.377a7.015,7.015,0,0,1-1.723-8.81c.078-.147.084-.147.186-.024A19.9,19.9,0,0,0,1473.87,78.1a18.237,18.237,0,0,0,2.662.437c.255.021.506.036.76.06.108.009.132-.015.111-.132a6.9,6.9,0,0,1,1.082-5.41,6.7,6.7,0,0,1,4.665-2.94,6.824,6.824,0,0,1,6.074,1.992.256.256,0,0,0,.269.1,14.058,14.058,0,0,0,4.136-1.582c.033-.021.072-.033.107-.051l.021.021a5.82,5.82,0,0,1-.673,1.474,6.923,6.923,0,0,1-2.162,2.213.55.55,0,0,0-.114.093,3.593,3.593,0,0,0,.718-.09,14.061,14.061,0,0,0,3.062-.921A.161.161,0,0,1,1494.715,73.319Z" transform="translate(-1460.7 -70.021)" fill="#0dbeff"/>
</svg>
